<svg width="24" height="24" viewBox="0 0 24 24" fill="none" xmlns="http://www.w3.org/2000/svg">
<path fill-rule="evenodd" clip-rule="evenodd" d="M5 8.8746C4.44772 8.8746 4 9.32232 4 9.8746V14.1246C4 14.6769 4.44772 15.1246 5 15.1246H6.4375C6.98978 15.1246 7.4375 15.5723 7.4375 16.1246C7.4375 16.6769 6.98978 17.1246 6.4375 17.1246H5C3.34315 17.1246 2 15.7815 2 14.1246V9.8746C2 8.21775 3.34315 6.8746 5 6.8746H6.4375C6.98978 6.8746 7.4375 7.32232 7.4375 7.8746C7.4375 8.42688 6.98978 8.8746 6.4375 8.8746H5Z" fill="#1E212C"/>
<path fill-rule="evenodd" clip-rule="evenodd" d="M13 3.93832C13 3.67787 12.6909 3.54114 12.4982 3.71633L7.11017 8.61454L5.76483 7.13466L11.1529 2.23645C12.6303 0.893308 15 1.94159 15 3.93832V20.0609C15 22.0576 12.6303 23.1059 11.1529 21.7627L5.76483 16.8645L7.11017 15.3847L12.4982 20.2829C12.6909 20.4581 13 20.3213 13 20.0609V3.93832Z" fill="#1E212C"/>
<path fill-rule="evenodd" clip-rule="evenodd" d="M16.0429 9.22999C16.4334 8.83947 17.0666 8.83947 17.4571 9.22999L21.5821 13.355C21.9726 13.7455 21.9726 14.3787 21.5821 14.7692C21.1916 15.1597 20.5584 15.1597 20.1679 14.7692L16.0429 10.6442C15.6524 10.2537 15.6524 9.62052 16.0429 9.22999Z" fill="#1E212C"/>
<path fill-rule="evenodd" clip-rule="evenodd" d="M21.5821 9.22999C21.1916 8.83947 20.5584 8.83947 20.1679 9.22999L16.0429 13.355C15.6524 13.7455 15.6524 14.3787 16.0429 14.7692C16.4334 15.1597 17.0666 15.1597 17.4571 14.7692L21.5821 10.6442C21.9726 10.2537 21.9726 9.62052 21.5821 9.22999Z" fill="#1E212C"/>
</svg>
