<svg width="24" height="24" viewBox="0 0 24 24" fill="none" xmlns="http://www.w3.org/2000/svg">
<path fill-rule="evenodd" clip-rule="evenodd" d="M14.4 18.7C15.1 19.2 16 18.8 16 17.9V13.4L12.3 17.1L14.4 18.7Z" fill="#fff"/>
<path fill-rule="evenodd" clip-rule="evenodd" d="M20.7 5.3C20.3 4.9 19.7 4.9 19.3 5.3L16 8.6V6.1C16 5.3 15 4.8 14.4 5.3L11.6 7.6C11.2 7.8 10.8 8 10.3 8H8C6.9 8 6 8.9 6 10V14C6 15.1 6.9 16 8 16H8.6L5.3 19.3C4.9 19.7 4.9 20.3 5.3 20.7C5.7 21.1 6.3 21.1 6.7 20.7L20.7 6.7C21.1 6.3 21.1 5.7 20.7 5.3Z" fill="#fff"/>
</svg>
