<svg width="24" height="24" viewBox="0 0 24 24" fill="none" xmlns="http://www.w3.org/2000/svg">
<path fill-rule="evenodd" clip-rule="evenodd" d="M16.5861 5.6689C16.8758 5.1987 17.4918 5.05237 17.962 5.34207C20.3077 6.78726 21.875 9.38208 21.875 12.3438C21.875 15.3056 20.3077 17.9004 17.962 19.3456C17.4918 19.6353 16.8758 19.489 16.5861 19.0187C16.2964 18.5485 16.4427 17.9325 16.913 17.6428C18.6924 16.5465 19.875 14.5828 19.875 12.3438C19.875 10.1048 18.6924 8.14116 16.913 7.04483C16.4427 6.75513 16.2964 6.13911 16.5861 5.6689Z" fill="#1E212C"/>
<path fill-rule="evenodd" clip-rule="evenodd" d="M15.9921 9.97218C16.3525 9.55363 16.9839 9.50642 17.4024 9.86674C18.0803 10.4503 18.4375 11.3901 18.4375 12.3434C18.4375 13.2966 18.0803 14.2364 17.4024 14.82C16.9839 15.1803 16.3525 15.1331 15.9921 14.7145C15.6318 14.296 15.679 13.6646 16.0976 13.3042C16.2448 13.1775 16.4375 12.8435 16.4375 12.3434C16.4375 11.8432 16.2448 11.5092 16.0976 11.3825C15.679 11.0221 15.6318 10.3907 15.9921 9.97218Z" fill="#1E212C"/>
<path fill-rule="evenodd" clip-rule="evenodd" d="M5 8.8746C4.44772 8.8746 4 9.32232 4 9.8746V14.1246C4 14.6769 4.44772 15.1246 5 15.1246H6.4375C6.98978 15.1246 7.4375 15.5723 7.4375 16.1246C7.4375 16.6769 6.98978 17.1246 6.4375 17.1246H5C3.34315 17.1246 2 15.7815 2 14.1246V9.8746C2 8.21775 3.34315 6.8746 5 6.8746H6.4375C6.98978 6.8746 7.4375 7.32232 7.4375 7.8746C7.4375 8.42688 6.98978 8.8746 6.4375 8.8746H5Z" fill="#1E212C"/>
<path fill-rule="evenodd" clip-rule="evenodd" d="M13 3.93832C13 3.67787 12.6909 3.54114 12.4982 3.71633L7.11017 8.61454L5.76483 7.13466L11.1529 2.23645C12.6303 0.893308 15 1.94159 15 3.93832V20.0609C15 22.0576 12.6303 23.1059 11.1529 21.7627L5.76483 16.8645L7.11017 15.3847L12.4982 20.2829C12.6909 20.4581 13 20.3213 13 20.0609V3.93832Z" fill="#1E212C"/>
</svg>
